#Comment line ignore any data following # character 
#Hierarchical Translation and Rotation (.htr) file 
[Header]	
#Header keywords are followed by a single value 
FileType HTR		#Single word string
DataType HTRS		#Translation followed by rotation and scale data
FileVersion 1		#integer
NumSegments 84		#integer
NumFrames 2		#integer
DataFrameRate 30		#integer, data frame rate in this file
EulerRotationOrder ZYX
CalibrationUnits mm
RotationUnits Degrees
GlobalAxisofGravity Y
BoneLengthAxis Y
ScaleFactor 1.00
[SegmentNames&Hierarchy]
#CHILD	PARENT
MASTER GLOBAL
root MASTER
chest root
L_mid_tent01 root
R_mid_tent01 root
spine01 root
Bip01_Neck chest
L_humerus chest
R_humerus chest
weapon_bone chest
Bip01_Head Bip01_Neck
eye_left_bone Bip01_Head
eye_right_bone Bip01_Head
L_forearm L_humerus
L_front_hand L_forearm
L_weapon_bone L_forearm
L_front_hand01_01 L_front_hand
L_front_hand02_01 L_front_hand
L_front_hand03_01 L_front_hand
L_front_hand01_02 L_front_hand01_01
L_front_hand02_02 L_front_hand02_01
L_front_hand03_02 L_front_hand03_01
R_forearm R_humerus
R_front_hand R_forearm
R_weapon_bone R_forearm
R_front_hand01_01 R_front_hand
R_front_hand02_01 R_front_hand
R_front_hand03_01 R_front_hand
R_front_hand01_02 R_front_hand01_01
R_front_hand02_02 R_front_hand02_01
R_front_hand03_02 R_front_hand03_01
null_rope01_connect L_mid_tent01
Rope1_Seg01 null_rope01_connect
Rope1_Seg02 Rope1_Seg01
Rope1_Seg03 Rope1_Seg02
Rope1_Seg04 Rope1_Seg03
Rope1_Seg05 Rope1_Seg04
Rope1_Seg06 Rope1_Seg05
Rope1_Seg07 Rope1_Seg06
Rope1_Seg09 Rope1_Seg07
L_mid_hand01 Rope1_Seg09
L_mid_hand02 Rope1_Seg09
L_mid_hand03 Rope1_Seg09
null_rope02_connect R_mid_tent01
Rope2_Seg01 null_rope02_connect
Rope2_Seg02 Rope2_Seg01
Rope2_Seg03 Rope2_Seg02
Rope2_Seg04 Rope2_Seg03
Rope2_Seg05 Rope2_Seg04
Rope2_Seg06 Rope2_Seg05
Rope2_Seg07 Rope2_Seg06
Rope2_Seg09 Rope2_Seg07
R_mid_hand01 Rope2_Seg09
R_mid_hand02 Rope2_Seg09
R_mid_hand03 Rope2_Seg09
spine02 spine01
spine03 spine02
pelvis spine03
null_rope03_connect pelvis
null_rope04_connect pelvis
Rope3_Seg01 null_rope03_connect
Rope3_Seg02 Rope3_Seg01
Rope3_Seg03 Rope3_Seg02
Rope3_Seg04 Rope3_Seg03
Rope3_Seg05 Rope3_Seg04
Rope3_Seg06 Rope3_Seg05
Rope3_Seg07 Rope3_Seg06
Rope3_Seg08 Rope3_Seg07
Rope3_Seg09 Rope3_Seg08
R_rear_hand01 Rope3_Seg09
R_rear_hand02 Rope3_Seg09
R_rear_hand03 Rope3_Seg09
Rope4_Seg01 null_rope04_connect
Rope4_Seg02 Rope4_Seg01
Rope4_Seg03 Rope4_Seg02
Rope4_Seg04 Rope4_Seg03
Rope4_Seg05 Rope4_Seg04
Rope4_Seg06 Rope4_Seg05
Rope4_Seg07 Rope4_Seg06
Rope4_Seg08 Rope4_Seg07
Rope4_Seg09 Rope4_Seg08
L_rear_hand01 Rope4_Seg09
L_rear_hand02 Rope4_Seg09
L_rear_hand03 Rope4_Seg09
[BasePosition]
#SegmentName Tx, Ty, Tz, Rx, Ry, Rz, BoneLength
MASTER 0.000000 0.000000 0.000000 -90.000000 0.000000 0.000000 10.000000 
root 0.000000 0.000000 0.000000 0.000000 0.000000 0.000000 10.000000 
chest 0.000000 0.000000 0.000000 0.000000 0.000000 0.000000 10.000000 
L_mid_tent01 0.000000 0.000000 0.000000 0.000000 0.000000 0.000000 10.000000 
R_mid_tent01 0.000000 0.000000 0.000000 0.000000 0.000000 0.000000 10.000000 
spine01 0.000000 0.000000 0.000000 0.000000 0.000000 0.000000 10.000000 
Bip01_Neck 0.000000 0.000000 0.000000 0.000000 0.000000 0.000000 10.000000 
L_humerus 0.000000 0.000000 0.000000 0.000000 0.000000 0.000000 10.000000 
R_humerus 0.000000 0.000000 0.000000 0.000000 0.000000 0.000000 10.000000 
weapon_bone 0.000000 0.000000 0.000000 0.000000 0.000000 0.000000 10.000000 
Bip01_Head 0.000000 0.000000 0.000000 0.000000 0.000000 0.000000 10.000000 
eye_left_bone 0.000000 0.000000 0.000000 0.000000 0.000000 0.000000 10.000000 
eye_right_bone 0.000000 0.000000 0.000000 0.000000 0.000000 0.000000 10.000000 
L_forearm 0.000000 0.000000 0.000000 0.000000 0.000000 0.000000 10.000000 
L_front_hand 0.000000 0.000000 0.000000 0.000000 0.000000 0.000000 10.000000 
L_weapon_bone 0.000000 0.000000 0.000000 0.000000 0.000000 0.000000 10.000000 
L_front_hand01_01 0.000000 0.000000 0.000000 0.000000 0.000000 0.000000 10.000000 
L_front_hand02_01 0.000000 0.000000 0.000000 0.000000 0.000000 0.000000 10.000000 
L_front_hand03_01 0.000000 0.000000 0.000000 0.000000 0.000000 0.000000 10.000000 
L_front_hand01_02 0.000000 0.000000 0.000000 0.000000 0.000000 0.000000 10.000000 
L_front_hand02_02 0.000000 0.000000 0.000000 0.000000 0.000000 0.000000 10.000000 
L_front_hand03_02 0.000000 0.000000 0.000000 0.000000 0.000000 0.000000 10.000000 
R_forearm 0.000000 0.000000 0.000000 0.000000 0.000000 0.000000 10.000000 
R_front_hand 0.000000 0.000000 0.000000 0.000000 0.000000 0.000000 10.000000 
R_weapon_bone 0.000000 0.000000 0.000000 0.000000 0.000000 0.000000 10.000000 
R_front_hand01_01 0.000000 0.000000 0.000000 0.000000 0.000000 0.000000 10.000000 
R_front_hand02_01 0.000000 0.000000 0.000000 0.000000 0.000000 0.000000 10.000000 
R_front_hand03_01 0.000000 0.000000 0.000000 0.000000 0.000000 0.000000 10.000000 
R_front_hand01_02 0.000000 0.000000 0.000000 0.000000 0.000000 0.000000 10.000000 
R_front_hand02_02 0.000000 0.000000 0.000000 0.000000 0.000000 0.000000 10.000000 
R_front_hand03_02 0.000000 0.000000 0.000000 0.000000 0.000000 0.000000 10.000000 
null_rope01_connect 0.000000 0.000000 0.000000 0.000000 0.000000 0.000000 10.000000 
Rope1_Seg01 0.000000 0.000000 0.000000 0.000000 0.000000 0.000000 10.000000 
Rope1_Seg02 0.000000 0.000000 0.000000 0.000000 0.000000 0.000000 10.000000 
Rope1_Seg03 0.000000 0.000000 0.000000 0.000000 0.000000 0.000000 10.000000 
Rope1_Seg04 0.000000 0.000000 0.000000 0.000000 0.000000 0.000000 10.000000 
Rope1_Seg05 0.000000 0.000000 0.000000 0.000000 0.000000 0.000000 10.000000 
Rope1_Seg06 0.000000 0.000000 0.000000 0.000000 0.000000 0.000000 10.000000 
Rope1_Seg07 0.000000 0.000000 0.000000 0.000000 0.000000 0.000000 10.000000 
Rope1_Seg09 0.000000 0.000000 0.000000 0.000000 0.000000 0.000000 10.000000 
L_mid_hand01 0.000000 0.000000 0.000000 0.000000 0.000000 0.000000 10.000000 
L_mid_hand02 0.000000 0.000000 0.000000 0.000000 0.000000 0.000000 10.000000 
L_mid_hand03 0.000000 0.000000 0.000000 0.000000 0.000000 0.000000 10.000000 
null_rope02_connect 0.000000 0.000000 0.000000 0.000000 0.000000 0.000000 10.000000 
Rope2_Seg01 0.000000 0.000000 0.000000 0.000000 0.000000 0.000000 10.000000 
Rope2_Seg02 0.000000 0.000000 0.000000 0.000000 0.000000 0.000000 10.000000 
Rope2_Seg03 0.000000 0.000000 0.000000 0.000000 0.000000 0.000000 10.000000 
Rope2_Seg04 0.000000 0.000000 0.000000 0.000000 0.000000 0.000000 10.000000 
Rope2_Seg05 0.000000 0.000000 0.000000 0.000000 0.000000 0.000000 10.000000 
Rope2_Seg06 0.000000 0.000000 0.000000 0.000000 0.000000 0.000000 10.000000 
Rope2_Seg07 0.000000 0.000000 0.000000 0.000000 0.000000 0.000000 10.000000 
Rope2_Seg09 0.000000 0.000000 0.000000 0.000000 0.000000 0.000000 10.000000 
R_mid_hand01 0.000000 0.000000 0.000000 0.000000 0.000000 0.000000 10.000000 
R_mid_hand02 0.000000 0.000000 0.000000 0.000000 0.000000 0.000000 10.000000 
R_mid_hand03 0.000000 0.000000 0.000000 0.000000 0.000000 0.000000 10.000000 
spine02 0.000000 0.000000 0.000000 0.000000 0.000000 0.000000 10.000000 
spine03 0.000000 0.000000 0.000000 0.000000 0.000000 0.000000 10.000000 
pelvis 0.000000 0.000000 0.000000 0.000000 0.000000 0.000000 10.000000 
null_rope03_connect 0.000000 0.000000 0.000000 0.000000 0.000000 0.000000 10.000000 
null_rope04_connect 0.000000 0.000000 0.000000 0.000000 0.000000 0.000000 10.000000 
Rope3_Seg01 0.000000 0.000000 0.000000 0.000000 0.000000 0.000000 10.000000 
Rope3_Seg02 0.000000 0.000000 0.000000 0.000000 0.000000 0.000000 10.000000 
Rope3_Seg03 0.000000 0.000000 0.000000 0.000000 0.000000 0.000000 10.000000 
Rope3_Seg04 0.000000 0.000000 0.000000 0.000000 0.000000 0.000000 10.000000 
Rope3_Seg05 0.000000 0.000000 0.000000 0.000000 0.000000 0.000000 10.000000 
Rope3_Seg06 0.000000 0.000000 0.000000 0.000000 0.000000 0.000000 10.000000 
Rope3_Seg07 0.000000 0.000000 0.000000 0.000000 0.000000 0.000000 10.000000 
Rope3_Seg08 0.000000 0.000000 0.000000 0.000000 0.000000 0.000000 10.000000 
Rope3_Seg09 0.000000 0.000000 0.000000 0.000000 0.000000 0.000000 10.000000 
R_rear_hand01 0.000000 0.000000 0.000000 0.000000 0.000000 0.000000 10.000000 
R_rear_hand02 0.000000 0.000000 0.000000 0.000000 0.000000 0.000000 10.000000 
R_rear_hand03 0.000000 0.000000 0.000000 0.000000 0.000000 0.000000 10.000000 
Rope4_Seg01 0.000000 0.000000 0.000000 0.000000 0.000000 0.000000 10.000000 
Rope4_Seg02 0.000000 0.000000 0.000000 0.000000 0.000000 0.000000 10.000000 
Rope4_Seg03 0.000000 0.000000 0.000000 0.000000 0.000000 0.000000 10.000000 
Rope4_Seg04 0.000000 0.000000 0.000000 0.000000 0.000000 0.000000 10.000000 
Rope4_Seg05 0.000000 0.000000 0.000000 0.000000 0.000000 0.000000 10.000000 
Rope4_Seg06 0.000000 0.000000 0.000000 0.000000 0.000000 0.000000 10.000000 
Rope4_Seg07 0.000000 0.000000 0.000000 0.000000 0.000000 0.000000 10.000000 
Rope4_Seg08 0.000000 0.000000 0.000000 0.000000 0.000000 0.000000 10.000000 
Rope4_Seg09 0.000000 0.000000 0.000000 0.000000 0.000000 0.000000 10.000000 
L_rear_hand01 0.000000 0.000000 0.000000 0.000000 0.000000 0.000000 10.000000 
L_rear_hand02 0.000000 0.000000 0.000000 0.000000 0.000000 0.000000 10.000000 
L_rear_hand03 0.000000 0.000000 0.000000 0.000000 0.000000 0.000000 10.000000 
#Beginning of Data. Separated by tabs
#Fr	Tx	Ty	Tz	Rx	Ry	Rz	SF
[MASTER]
18 672.650024 4098.664551 3034.797852 0.001660 0.001660 0.001660 5144.075195
19 599.620667 4339.232422 3022.415039 0.001660 0.001660 0.001660 5321.980469
[root]
18 48.186718 -124.898682 499.375275 -16.096199 6.394007 -86.054703 517.008057
19 80.271744 -125.063774 507.133789 -17.273037 5.662051 -83.266487 528.459229
[chest]
18 -84.512650 -34.090519 0.000000 -1.925025 5.454426 134.146927 91.129311
19 -84.512650 -34.090519 0.000000 -1.657567 2.295480 142.822617 91.129311
[L_mid_tent01]
18 27.298960 22.179258 -249.918686 -6.582407 17.811420 67.984322 252.381668
19 27.298952 22.179258 -249.918686 -7.544616 17.328663 66.430740 252.381668
[R_mid_tent01]
18 23.228794 24.509907 226.238495 157.882004 -36.215065 62.940632 228.744751
19 23.228794 24.509907 226.238495 156.074326 -38.764881 62.412773 228.744751
[spine01]
18 -0.361383 -0.195265 0.000000 0.001800 0.001506 10.166206 0.410763
19 -0.361383 -0.195265 0.000000 0.001791 0.001517 9.453692 0.410763
[Bip01_Neck]
18 165.484543 71.581718 0.000119 176.643677 -1.657967 43.431911 180.302734
19 165.484543 71.581718 0.000119 176.643677 -1.657967 43.431911 180.302734
[L_humerus]
18 -13.983130 -135.272980 -120.471481 161.248367 62.678577 -106.482162 181.680161
19 -13.983130 -135.272980 -120.471481 163.813644 57.981995 -103.507210 181.680161
[R_humerus]
18 -13.983309 -135.273102 125.287651 -174.644501 -40.504772 -89.718788 184.909012
19 -13.983309 -135.273102 125.287651 -174.974548 -36.798309 -89.269127 184.909012
[weapon_bone]
18 235.964890 -300.705902 0.000000 0.000000 -89.951546 -128.212341 382.234833
19 235.964890 -300.705902 0.000000 0.000000 -89.951546 -128.212341 382.234833
[Bip01_Head]
18 213.333618 186.023819 7.798843 13.464368 1.056062 -38.300014 283.155273
19 213.334869 186.020126 7.846832 8.387419 1.210470 -38.398666 283.155121
[eye_left_bone]
18 -24.626970 125.451866 -64.772606 0.000000 -90.000000 -99.840431 143.318359
19 -24.626970 125.451866 -64.772606 0.000000 -90.000000 -99.840431 143.318359
[eye_right_bone]
18 -24.626970 125.451866 64.327362 0.000000 -89.965736 80.156380 143.117676
19 -24.626970 125.451866 64.327362 0.000000 -89.965736 80.156380 143.117676
[L_forearm]
18 322.776093 0.000000 -0.000119 0.000431 -0.002307 -111.185738 322.776093
19 322.776093 0.000000 -0.000119 0.000432 -0.002307 -111.213707 322.776093
[L_front_hand]
18 241.149185 -0.042021 -3.300071 -178.667953 -1.835447 -27.422350 241.171753
19 241.149185 -0.042021 -3.300071 -178.667953 -1.835447 -27.422350 241.171753
[L_weapon_bone]
18 156.183838 0.000000 0.000000 0.000014 0.000007 0.000001 156.183838
19 156.183838 0.000000 0.000000 0.000014 0.000007 0.000001 156.183838
[L_front_hand01_01]
18 86.095154 20.947098 -0.655860 -0.334039 -0.500941 71.473785 88.609184
19 86.095154 20.947098 -0.655860 -0.343298 -0.494452 72.684837 88.609184
[L_front_hand02_01]
18 86.935165 -11.437475 24.513514 148.678970 -58.017021 -54.691475 91.046425
19 86.935165 -11.437475 24.513514 150.381836 -58.634865 -56.693291 91.046425
[L_front_hand03_01]
18 86.637497 -14.123976 -20.424902 -148.599625 56.232182 -56.378220 90.126129
19 86.637497 -14.123976 -20.424902 -150.184586 56.852543 -58.280556 90.126129
[L_front_hand01_02]
18 71.020905 -0.000179 0.000030 0.000322 -0.002325 -105.750679 71.020905
19 71.020905 -0.000179 0.000030 0.000323 -0.002325 -105.841873 71.020905
[L_front_hand02_02]
18 71.020927 -0.000119 0.000060 0.000322 -0.002325 -105.750679 71.020927
19 71.020927 -0.000119 0.000060 0.000323 -0.002325 -105.841873 71.020927
[L_front_hand03_02]
18 71.020905 -0.000060 0.000060 0.000322 -0.002325 -105.750679 71.020905
19 71.020905 -0.000060 0.000060 0.000323 -0.002325 -105.841873 71.020905
[R_forearm]
18 322.776428 -0.000060 0.000030 0.201068 0.068283 -109.839264 322.776428
19 322.776428 -0.000060 0.000030 0.201044 0.068353 -109.879547 322.776428
[R_front_hand]
18 238.847015 -0.006795 2.210259 -2.635298 -10.645461 -26.312506 238.857239
19 238.847015 -0.006795 2.210259 -2.635298 -10.645461 -26.312506 238.857239
[R_weapon_bone]
18 155.664093 0.002503 -0.000030 0.003487 0.001180 -90.988930 155.664078
19 155.664093 0.002503 -0.000030 0.003487 0.001180 -90.988930 155.664078
[R_front_hand01_01]
18 87.624611 14.231146 22.918642 -153.536880 -59.633747 60.470901 91.683487
19 87.624611 14.231146 22.918642 -154.633499 -59.950619 61.746044 91.683487
[R_front_hand02_01]
18 89.356956 14.367283 -19.491137 153.567596 57.992992 62.531010 92.579636
19 89.356956 14.367283 -19.491137 154.602661 58.302849 63.744389 92.579636
[R_front_hand03_01]
18 87.286232 -22.307278 -0.143439 0.155617 -0.427176 -75.061508 90.091743
19 87.286232 -22.307278 -0.143439 0.162155 -0.423168 -75.767921 90.091743
[R_front_hand01_02]
18 71.020905 0.000060 0.000119 0.002323 -0.000334 106.381721 71.020905
19 71.020905 0.000060 0.000119 0.002323 -0.000334 106.381714 71.020905
[R_front_hand02_02]
18 71.020844 -0.000030 -0.000119 0.002323 -0.000334 106.381721 71.020836
19 71.020844 -0.000030 -0.000119 0.002323 -0.000334 106.381714 71.020836
[R_front_hand03_02]
18 71.020905 0.000000 0.000030 0.002323 -0.000334 106.381721 71.020905
19 71.020905 0.000000 0.000030 0.002323 -0.000334 106.381714 71.020905
[null_rope01_connect]
18 328.732483 0.000000 -0.000238 -4.148694 -35.425549 16.404730 328.732483
19 328.732483 0.000000 -0.000238 -0.554457 -36.483551 14.002061 328.732483
[Rope1_Seg01]
18 0.000038 -0.000325 0.000000 -23.998129 29.074398 140.178604 0.000328
19 0.000038 -0.000342 0.000000 -20.909924 33.502632 150.038467 0.000344
[Rope1_Seg02]
18 139.999863 -0.000179 0.000000 -7.822496 20.958477 6.826926 139.999863
19 139.999863 -0.000179 0.000000 -3.372280 13.861570 2.338166 139.999863
[Rope1_Seg03]
18 139.999924 0.000060 -0.000060 -15.406131 40.849678 29.108791 139.999924
19 139.999924 0.000060 -0.000060 -12.651574 32.185341 11.173265 139.999924
[Rope1_Seg04]
18 139.999924 -0.000060 -0.000119 -8.170384 17.945032 24.016733 139.999924
19 139.999924 -0.000060 -0.000119 -19.211201 35.097057 19.929270 139.999924
[Rope1_Seg05]
18 139.999832 0.000119 -0.000060 -3.485012 22.321791 28.397017 139.999832
19 139.999832 0.000119 -0.000060 -17.563606 38.474812 32.828529 139.999832
[Rope1_Seg06]
18 139.999954 0.000119 -0.000060 -0.622967 11.220528 19.682697 139.999954
19 139.999954 0.000119 -0.000060 -5.419059 7.214995 17.296360 139.999954
[Rope1_Seg07]
18 139.999985 0.000060 0.000000 0.104537 4.135542 8.331883 139.999985
19 139.999985 0.000060 0.000000 -1.493380 1.999402 6.895516 139.999985
[Rope1_Seg09]
18 121.602913 0.000119 -0.000089 -89.793175 -1.359789 0.847147 121.602913
19 121.602913 0.000119 -0.000089 -89.793175 -1.359789 0.847147 121.602913
[L_mid_hand01]
18 103.859421 1.038730 8.195221 116.522400 -56.273491 -23.071604 104.187431
19 103.859421 1.038730 8.195221 119.055542 -59.298035 -26.066498 104.187431
[L_mid_hand02]
18 105.572853 -4.139662 -10.864139 -157.484573 39.487514 -56.304852 106.211075
19 105.572853 -4.139662 -10.864139 -160.167099 40.723133 -60.466198 106.211075
[L_mid_hand03]
18 104.641464 17.579376 -3.913581 -10.068325 15.918203 60.978344 106.179977
19 104.641464 17.579376 -3.913581 -9.090184 16.486181 64.488464 106.179977
[null_rope02_connect]
18 328.732849 0.000179 -0.000119 -150.834763 -7.475821 -27.429869 328.732849
19 328.732849 0.000179 -0.000119 -147.522507 -9.013865 -26.137423 328.732849
[Rope2_Seg01]
18 0.000086 -0.000210 0.000000 -25.176907 -47.129810 -170.152206 0.000227
19 0.000086 -0.000229 0.000000 -26.586422 -45.161701 -168.685547 0.000244
[Rope2_Seg02]
18 139.999741 -0.000060 -0.000119 0.532673 -9.643809 -1.234483 139.999756
19 139.999741 -0.000060 -0.000119 0.800829 -9.505140 -2.447271 139.999756
[Rope2_Seg03]
18 140.000107 0.000030 0.000000 -0.788495 -17.690351 -2.353448 140.000107
19 140.000107 0.000030 0.000000 -0.357867 -17.628895 -4.623646 140.000107
[Rope2_Seg04]
18 139.999802 0.000000 -0.000060 -6.268464 -24.526028 -6.740533 139.999802
19 139.999802 0.000000 -0.000060 -5.594372 -24.317108 -9.367456 139.999802
[Rope2_Seg05]
18 139.999985 -0.000060 0.000119 -17.971098 -28.418644 -4.034423 139.999985
19 139.999985 -0.000060 0.000119 -17.670679 -29.084755 -8.443654 139.999985
[Rope2_Seg06]
18 139.999893 -0.000030 -0.000119 -79.606453 -63.438038 -41.978359 139.999893
19 139.999893 -0.000030 -0.000119 -56.381420 -56.116974 -54.617393 139.999893
[Rope2_Seg07]
18 139.999893 0.000060 -0.000060 -7.404511 11.917699 -16.125422 139.999893
19 139.999893 0.000060 -0.000060 -7.636914 8.790048 -16.887094 139.999893
[Rope2_Seg09]
18 121.338966 0.000089 -0.000060 33.793236 -1.359788 -0.847141 121.338966
19 121.338966 0.000089 -0.000060 33.793236 -1.359788 -0.847141 121.338966
[R_mid_hand01]
18 104.680779 11.144459 -10.335981 -35.915806 33.394672 39.963581 105.778534
19 104.680779 11.144459 -10.335981 -34.395382 34.968521 42.666164 105.778534
[R_mid_hand02]
18 104.070427 2.443552 8.231699 69.545181 -44.771027 15.251744 104.424065
19 104.070427 2.443552 8.231699 68.534233 -47.330906 16.661503 104.424065
[R_mid_hand03]
18 106.028137 -11.221827 -5.996406 -170.436981 12.655030 -49.730145 106.788818
19 106.028137 -11.221827 -5.996406 -171.057114 13.096076 -52.505173 106.788818
[spine02]
18 129.756927 0.001550 0.000119 0.534932 -4.024278 -15.462838 129.756927
19 129.756927 0.001550 0.000119 0.538266 -4.023829 -15.511231 129.756927
[spine03]
18 78.613884 0.081672 -4.898997 2.002682 3.778759 18.054907 78.766426
19 78.613869 0.081674 -4.898997 2.004825 3.776752 18.088760 78.766411
[pelvis]
18 169.435242 0.051022 0.000000 5.795071 -1.009169 5.276124 169.435257
19 169.435242 0.051022 0.000000 6.162779 -1.008332 4.396325 169.435257
[null_rope03_connect]
18 -1.257226 -2.466202 137.391083 -6.670136 -9.472923 68.144829 137.418976
19 -1.257226 -2.466202 137.391083 -5.302336 -10.484312 66.909210 137.418976
[null_rope04_connect]
18 -1.259640 -2.480268 -137.844437 -6.670136 -9.472923 68.144829 137.872513
19 -1.259640 -2.480268 -137.844437 -5.302336 -10.484312 66.909210 137.872513
[Rope3_Seg01]
18 0.000000 0.000000 0.000000 44.043011 -33.197918 -121.764801 0.000000
19 0.000000 0.000000 0.000000 43.408718 -36.741501 -116.337715 0.000000
[Rope3_Seg02]
18 139.999924 -0.000119 0.000060 13.226348 -12.346012 4.466230 139.999924
19 139.999924 -0.000119 0.000060 10.557594 -11.451429 6.457654 139.999924
[Rope3_Seg03]
18 139.999924 -0.000119 0.000119 20.382423 -18.906609 13.050714 139.999924
19 139.999924 -0.000119 0.000119 14.715460 -17.577904 15.769232 139.999924
[Rope3_Seg04]
18 139.999924 0.000119 0.000000 13.315374 -14.124824 23.453613 139.999924
19 139.999924 0.000119 0.000000 8.577503 -13.138564 23.949633 139.999924
[Rope3_Seg05]
18 139.999924 -0.000238 0.000060 4.891809 -6.452491 18.451235 139.999924
19 139.999924 -0.000238 0.000060 2.588525 -9.452849 20.464788 139.999924
[Rope3_Seg06]
18 139.999893 -0.000119 -0.000060 1.772233 -5.817763 17.478083 139.999893
19 139.999893 -0.000119 -0.000060 -1.059276 -9.544867 19.751003 139.999893
[Rope3_Seg07]
18 139.999771 0.000060 -0.000119 -0.152721 -3.595584 13.112924 139.999771
19 139.999771 0.000060 -0.000119 -1.573885 -5.045959 11.551659 139.999771
[Rope3_Seg08]
18 139.999985 -0.000060 0.000000 -0.353962 -1.765516 6.990663 139.999985
19 139.999985 -0.000060 0.000000 -0.907614 -2.660966 5.872838 139.999985
[Rope3_Seg09]
18 90.185997 -0.000179 -0.000060 89.793228 -1.359877 -0.847183 90.185997
19 90.185997 -0.000179 -0.000060 89.793228 -1.359877 -0.847183 90.185997
[R_rear_hand01]
18 103.366196 -6.073594 -10.757982 -166.511459 20.844780 -45.419292 104.101845
19 103.366196 -6.073594 -10.757982 -167.736008 21.565809 -48.800846 104.101845
[R_rear_hand02]
18 100.509819 12.039542 -7.992327 -28.715416 27.221781 42.882874 101.543350
19 100.509819 12.039542 -7.992327 -27.197792 28.737715 46.115417 101.543350
[R_rear_hand03]
18 101.539970 5.215704 5.435467 81.812386 -45.906315 9.761456 101.819031
19 101.539970 5.215704 5.435467 81.295570 -49.108288 10.466791 101.819031
[Rope4_Seg01]
18 0.000005 -0.000325 -0.000153 -144.343994 69.438957 -138.783051 0.000359
19 0.000005 -0.000342 -0.000153 -142.519775 60.791416 -141.291077 0.000375
[Rope4_Seg02]
18 139.999985 0.000060 0.000119 2.857476 -7.379049 -9.632398 139.999985
19 139.999985 0.000060 0.000119 0.056571 -12.250035 -4.591689 139.999985
[Rope4_Seg03]
18 139.999924 0.000000 -0.000238 3.272952 0.390642 -14.927080 139.999924
19 139.999924 0.000000 -0.000238 1.734287 -6.409214 -8.137381 139.999924
[Rope4_Seg04]
18 139.999985 0.000000 0.000119 1.451072 -25.052399 -5.196311 139.999985
19 139.999985 0.000000 0.000119 0.844780 -27.919451 -1.054261 139.999985
[Rope4_Seg05]
18 139.999802 -0.000060 -0.000119 5.265898 -21.230431 5.767478 139.999802
19 139.999802 -0.000060 -0.000119 5.635759 -21.915867 4.505032 139.999802
[Rope4_Seg06]
18 139.999924 0.000000 0.000060 2.279937 -5.249698 1.283682 139.999924
19 139.999924 0.000000 0.000060 2.871370 -6.098602 1.458865 139.999924
[Rope4_Seg07]
18 139.999802 0.000000 0.000000 1.574117 -2.952718 0.802223 139.999802
19 139.999802 0.000000 0.000000 2.045402 -3.429711 0.989563 139.999802
[Rope4_Seg08]
18 139.999924 0.000000 0.000119 -0.549792 -1.672602 0.504313 139.999924
19 139.999924 0.000000 0.000119 -0.241391 -1.925959 0.628972 139.999924
[Rope4_Seg09]
18 90.185791 0.000060 0.000060 -135.617828 2.228885 0.850567 90.185791
19 90.185791 0.000060 0.000060 -135.617828 2.228885 0.850567 90.185791
[L_rear_hand01]
18 101.696655 -8.392275 -7.654577 -21.250181 -33.196430 122.367828 102.329041
19 101.696655 -8.392275 -7.654577 -19.499575 -34.171795 119.209053 102.329041
[L_rear_hand02]
18 102.726799 -1.568258 5.773216 78.649612 59.766773 166.297348 102.900848
19 102.726799 -1.568258 5.773216 77.604698 62.517105 165.103577 102.900848
[L_rear_hand03]
18 104.552910 9.721220 -10.420293 -172.167084 -23.462944 -119.660843 105.519653
19 104.552910 9.721220 -10.420293 -173.384872 -23.818933 -116.619850 105.519653
